<svg viewBox="0 0 1024 1024" xmlns="http://www.w3.org/2000/svg"><defs><linearGradient id="bg" x1="0" y1="0" x2="0.4" y2="1"><stop offset="0" stop-color="#3C424D"/><stop offset="1" stop-color="#181C22"/></linearGradient><clipPath id="bgclip"><rect width="1024" height="1024" rx="228"/></clipPath><filter id="sh" x="-15%" y="-15%" width="130%" height="130%"><feDropShadow dx="0" dy="7" stdDeviation="15" flood-color="#000000" flood-opacity="0.28"/></filter></defs><rect width="1024" height="1024" rx="228" fill="url(#bg)"/><g clip-path="url(#bgclip)"><path d="M 404 320 L 404 210 L 324 130 L 324 0" fill="none" stroke="#2BB89A" stroke-width="16" stroke-linecap="round" stroke-linejoin="round"/><path d="M 500 320 L 500 0" fill="none" stroke="#2BB89A" stroke-width="14" stroke-linecap="round" stroke-linejoin="round"/><path d="M 596 320 L 596 300 L 672 224 L 1024 224" fill="none" stroke="#2BB89A" stroke-width="16" stroke-linecap="round" stroke-linejoin="round"/><path d="M 680 392 L 788 392 L 868 312 L 1024 312" fill="none" stroke="#2BB89A" stroke-width="16" stroke-linecap="round" stroke-linejoin="round"/><path d="M 680 500 L 828 500 L 908 420 L 1024 420" fill="none" stroke="#2BB89A" stroke-width="16" stroke-linecap="round" stroke-linejoin="round"/><path d="M 680 632 L 840 632 L 920 712 L 920 1024" fill="none" stroke="#2BB89A" stroke-width="16" stroke-linecap="round" stroke-linejoin="round"/><path d="M 432 704 L 432 880 L 352 960" fill="none" stroke="#2BB89A" stroke-width="16" stroke-linecap="round" stroke-linejoin="round"/><path d="M 596 704 L 596 1024" fill="none" stroke="#2BB89A" stroke-width="14" stroke-linecap="round" stroke-linejoin="round"/><path d="M 344 400 L 240 400 L 160 480 L 0 480" fill="none" stroke="#2BB89A" stroke-width="16" stroke-linecap="round" stroke-linejoin="round"/><path d="M 344 520 L 240 520 L 160 600 L 0 600" fill="none" stroke="#2BB89A" stroke-width="16" stroke-linecap="round" stroke-linejoin="round"/><path d="M 344 640 L 240 640 L 160 720 L 0 720" fill="none" stroke="#2BB89A" stroke-width="16" stroke-linecap="round" stroke-linejoin="round"/><circle cx="324" cy="130" r="19" fill="#2BB89A"/><circle cx="324" cy="130" r="8" fill="#141821"/><circle cx="672" cy="224" r="19" fill="#2BB89A"/><circle cx="672" cy="224" r="8" fill="#141821"/><circle cx="868" cy="312" r="19" fill="#2BB89A"/><circle cx="868" cy="312" r="8" fill="#141821"/><circle cx="908" cy="420" r="19" fill="#2BB89A"/><circle cx="908" cy="420" r="8" fill="#141821"/><circle cx="840" cy="632" r="19" fill="#2BB89A"/><circle cx="840" cy="632" r="8" fill="#141821"/><circle cx="352" cy="960" r="19" fill="#2BB89A"/><circle cx="352" cy="960" r="8" fill="#141821"/><circle cx="240" cy="400" r="19" fill="#2BB89A"/><circle cx="240" cy="400" r="8" fill="#141821"/><circle cx="160" cy="600" r="19" fill="#2BB89A"/><circle cx="160" cy="600" r="8" fill="#141821"/><circle cx="500" cy="150" r="10" fill="#2BB89A"/><circle cx="596" cy="900" r="10" fill="#2BB89A"/></g><g filter="url(#sh)"><path d="M 364.0 320.0 H 620.0 L 680.0 380.0 V 684.0 Q 680.0 704.0 660.0 704.0 H 364.0 Q 344.0 704.0 344.0 684.0 V 340.0 Q 344.0 320.0 364.0 320.0 Z" fill="#1F6FE0"/><path d="M 620.0 320.0 L 620.0 380.0 L 680.0 380.0 Z" fill="#155BC0"/><rect x="388.0" y="390.0" width="210" height="20" rx="10" fill="#FFFFFF"/><rect x="388.0" y="444.0" width="210" height="20" rx="10" fill="#FFFFFF"/><rect x="388.0" y="498.0" width="210" height="20" rx="10" fill="#FFFFFF"/><rect x="388.0" y="552.0" width="210" height="20" rx="10" fill="#FFFFFF"/><rect x="388.0" y="606.0" width="150" height="20" rx="10" fill="#FFFFFF"/></g></svg>